<svg xmlns="http://www.w3.org/2000/svg" xmlns:xlink="http://www.w3.org/1999/xlink" width="500" zoomAndPan="magnify" viewBox="0 0 375 375" height="500" preserveAspectRatio="xMidYMid meet" xmlns:v="https://vecta.io/nano"><defs><clipPath id="A"><path d="M209.227 156.273h162.832v62.453H209.227zm0 0" clip-rule="nonzero"/></clipPath><clipPath id="B"><path d="M209.977 156.273h161.332a.75.75 0 0 1 .75.75v60.953a.75.75 0 0 1-.75.75H209.977a.75.75 0 0 1-.75-.75v-60.953a.75.75 0 0 1 .75-.75zm0 0" clip-rule="nonzero"/></clipPath><clipPath id="C"><path d="M5.199 156.273h208.492v62.25H5.199zm0 0" clip-rule="nonzero"/></clipPath><clipPath id="D"><path d="M5.949 156.273h206.832a.74.74 0 0 1 .527.219c.141.141.223.332.223.531v60.949c0 .199-.082.387-.223.527s-.328.223-.527.223H5.949c-.199 0-.391-.082-.531-.223a.74.74 0 0 1-.219-.527v-60.949a.75.75 0 0 1 .75-.75zm0 0" clip-rule="nonzero"/></clipPath><path id="E" d="M24.842 200.474c-2.273 0-4.48-.281-6.625-.844s-3.887-1.312-5.219-2.25l2.609-5.859c1.258.836 2.719 1.508 4.375 2.016 1.656.5 3.289.75 4.906.75 3.051 0 4.578-.758 4.578-2.281 0-.801-.437-1.395-1.312-1.781-.867-.395-2.262-.805-4.187-1.234-2.117-.457-3.887-.945-5.312-1.469-1.418-.52-2.637-1.352-3.656-2.5-1.012-1.156-1.516-2.711-1.516-4.672 0-1.707.469-3.25 1.406-4.625.938-1.383 2.332-2.477 4.188-3.281 1.863-.801 4.148-1.203 6.859-1.203a24.15 24.15 0 0 1 5.453.625c1.789.418 3.367 1.027 4.734 1.828l-2.437 5.906c-2.68-1.445-5.277-2.172-7.797-2.172-1.586 0-2.734.234-3.453.703s-1.078 1.078-1.078 1.828.426 1.313 1.281 1.688 2.227.762 4.125 1.156c2.145.461 3.922.949 5.328 1.469s2.625 1.355 3.656 2.5c1.031 1.137 1.547 2.68 1.547 4.625 0 1.688-.469 3.215-1.406 4.578s-2.344 2.461-4.219 3.281c-1.875.813-4.152 1.219-6.828 1.219zm0 0"/><path id="F" d="M87.478 200.474c-2.969 0-5.641-.629-8.016-1.891-2.367-1.258-4.227-3-5.578-5.219s-2.031-4.723-2.031-7.516c0-2.781.676-5.281 2.031-7.5s3.211-3.957 5.578-5.219c2.375-1.258 5.047-1.891 8.016-1.891s5.633.633 8 1.891c2.375 1.262 4.238 3 5.594 5.219s2.031 4.719 2.031 7.5c0 2.793-.68 5.297-2.031 7.516s-3.219 3.961-5.594 5.219c-2.367 1.262-5.031 1.891-8 1.891zm0-6.594c1.414 0 2.695-.332 3.844-1 1.156-.664 2.066-1.609 2.734-2.828.676-1.219 1.016-2.617 1.016-4.203 0-1.57-.34-2.969-1.016-4.187-.668-1.219-1.578-2.16-2.734-2.828-1.148-.676-2.43-1.016-3.844-1.016s-2.703.34-3.859 1.016c-1.148.668-2.059 1.609-2.734 2.828-.668 1.219-1 2.617-1 4.188 0 1.586.332 2.984 1 4.203.676 1.219 1.586 2.164 2.734 2.828 1.156.668 2.441 1 3.859 1zm0 0"/><path id="G" d="M167.379 194.442h-11.875l-2.219 5.469h-8.109l12.406-28.109h7.828l12.453 28.109h-8.266zm-2.328-5.859l-3.609-8.984-3.609 8.984zm0 0"/></defs><g clip-path="url(#A)"><g clip-path="url(#B)"><path fill="#fff" d="M209.227 156.273h162.832v62.453H209.227zm0 0"/></g></g><g clip-path="url(#C)"><g clip-path="url(#D)"><path fill="none" d="M5.949 156.273h206.832a.74.74 0 0 1 .527.219c.141.141.223.332.223.531v60.949c0 .199-.082.387-.223.527s-.328.223-.527.223H5.949c-.199 0-.391-.082-.531-.223a.74.74 0 0 1-.219-.527v-60.949a.75.75 0 0 1 .75-.75zm0 0" stroke="#fff" stroke-width="6"/></g></g><g fill="#fff"><use xlink:href="#E"/><path d="M67.695 171.802v28.109h-7.953v-10.969H48.898v10.969h-7.953v-28.109h7.953v10.563h10.844v-10.562zm0 0"/><use xlink:href="#F"/><path d="M120.119 171.802c2.539 0 4.75.422 6.625 1.266s3.32 2.055 4.344 3.625c1.02 1.563 1.531 3.402 1.531 5.516s-.512 3.949-1.531 5.5-2.469 2.75-4.344 3.594-4.086 1.266-6.625 1.266h-4.891v7.344h-7.953v-28.109zm-.484 14.5c1.633 0 2.867-.352 3.703-1.062s1.25-1.719 1.25-3.031-.418-2.328-1.25-3.047c-.836-.727-2.07-1.094-3.703-1.094h-4.406v8.234zm0 0"/><use xlink:href="#G"/><path d="M186.094 178.099h-8.641v-6.297h25.188v6.297h-8.594v21.813h-7.953zm0 0"/></g><use xlink:href="#E" x="204.668"/><use xlink:href="#G" x="97.062"/><path d="M277.172 171.802h7.953v21.813h13.406v6.297h-21.359zm0 0"/><use xlink:href="#F" x="228.357"/><path d="M362.383 171.802v28.109h-6.547l-12.422-14.984v14.984h-7.781v-28.109h6.547l12.406 14.984v-14.984zm0 0"/></svg>