<svg xmlns="http://www.w3.org/2000/svg" xmlns:xlink="http://www.w3.org/1999/xlink" width="40" zoomAndPan="magnify" viewBox="0 0 30 30.000001" height="40" preserveAspectRatio="xMidYMid meet" version="1.0"><defs><clipPath id="be68bcf6e5"><path d="M 1.566406 0.738281 L 28.433594 0.738281 L 28.433594 27.605469 L 1.566406 27.605469 Z M 1.566406 0.738281 " clip-rule="nonzero"/></clipPath><clipPath id="310f0f16a0"><path d="M 15 0.738281 C 7.582031 0.738281 1.566406 6.753906 1.566406 14.171875 C 1.566406 21.589844 7.582031 27.605469 15 27.605469 C 22.417969 27.605469 28.433594 21.589844 28.433594 14.171875 C 28.433594 6.753906 22.417969 0.738281 15 0.738281 Z M 15 0.738281 " clip-rule="nonzero"/></clipPath><clipPath id="7ce98a7661"><path d="M 4 1 L 21 1 L 21 28 L 4 28 Z M 4 1 " clip-rule="nonzero"/></clipPath><clipPath id="7f22cc289f"><path d="M 4.070312 1.429688 L 26.550781 0.523438 L 27.777344 30.984375 L 5.296875 31.890625 Z M 4.070312 1.429688 " clip-rule="nonzero"/></clipPath><clipPath id="c5dcd2181b"><path d="M 4.070312 1.429688 L 26.550781 0.523438 L 27.777344 30.984375 L 5.296875 31.890625 Z M 4.070312 1.429688 " clip-rule="nonzero"/></clipPath></defs><g clip-path="url(#be68bcf6e5)"><g clip-path="url(#310f0f16a0)"><path fill="#ffffff" d="M 1.566406 0.738281 L 28.433594 0.738281 L 28.433594 27.605469 L 1.566406 27.605469 Z M 1.566406 0.738281 " fill-opacity="1" fill-rule="nonzero"/></g></g><g clip-path="url(#7ce98a7661)"><g clip-path="url(#7f22cc289f)"><g clip-path="url(#c5dcd2181b)"><path fill="#000000" d="M 11.722656 1.128906 C 8.800781 3.113281 9.46875 7.269531 9.933594 9.121094 C 9.933594 9.121094 9.40625 9.332031 8.734375 8.851562 C 8.734375 8.851562 8.921875 9.222656 9.585938 9.457031 C 9.585938 9.457031 9.007812 9.59375 8.671875 9.492188 C 8.671875 9.492188 9.25 9.789062 9.914062 9.746094 C 9.914062 9.746094 10.085938 11.132812 8.796875 12.535156 C 7.503906 13.933594 10.667969 13.355469 9.738281 15.105469 C 9.738281 15.105469 9.332031 15.789062 10.332031 16.15625 C 10.332031 16.15625 9.726562 16.660156 10.320312 16.9375 C 11.429688 17.460938 10.296875 19.328125 11.773438 19.867188 C 13.777344 20.601562 15.445312 18.097656 17.574219 19.15625 C 17.574219 19.15625 18.179688 24.535156 12.882812 26.257812 C 12.882812 26.257812 8.371094 27.515625 4.90625 22.179688 C 10.976562 31.980469 17.828125 25.40625 17.828125 25.40625 C 27.402344 15.914062 7.386719 12.039062 11.722656 1.128906 Z M 11.722656 1.128906 " fill-opacity="1" fill-rule="nonzero"/></g></g></g></svg>